<svg id="Calque_7_-_copie_2" data-name="Calque 7 - copie 2" xmlns="http://www.w3.org/2000/svg" viewBox="0 0 281.98 60.82"><defs><style>.cls-1{opacity:0.2;}.cls-2{fill:#0d293d;}.cls-3{fill:none;}.cls-4{fill:#22b4b1;}.cls-5{fill:#0075bf;}.cls-6{fill:#4ec0dc;}</style></defs><title>phabulous_droit</title><g class="cls-1"><path class="cls-2" d="M20.18,7.36C16.56,7.36,3,8,3,11.92c0,1.27,1.48,6,3.16,6.91-.34,12.14.06,28.85.53,31.74C7,52.38,9.91,52.85,13.27,53c2.75.14,3.22-1.21,3.42-3.42.13-1.14.34-4.43.47-8.52,1.34,1.07,3.36,1.74,6.58,1.74,4.83-.06,12.34-5.1,12.34-18.51C36.08,12.26,30.71,7.36,20.18,7.36Zm.34,27.77a14.22,14.22,0,0,1-3.16-.4c.2-6,.27-12.61.07-17.24a18.88,18.88,0,0,1,3.22-.34c3.09,0,4.83,2.42,4.83,8.32C25.48,31.91,23.47,35.13,20.52,35.13Z"/><path class="cls-2" d="M271.38,19.3A3.41,3.41,0,0,0,269,18.23c-1.54,0-5.06,2.67-5.77,6.12-2.54,7.63-5.8,18-8.79,18-1.74,0-2.68-1.81-2.68-6,0-7.38.27-12.08.27-14S248.43,19,245.88,19c-1.88,0-2.82,1-3.22,3.83C241.52,31.78,238,41,235.68,41c-.73,0-1.14-.47-1.14-1.68-.13-5.23,1-14.35.07-17.44-.74-2.42-4.23-3.22-6.37-3.22-1.75,0-2.42.67-2.75,1.95a46.41,46.41,0,0,0-1.1,9.16c-1.56,2.44-3.2,3.67-5.14,4.05-.41-10.67-5-15.5-11.88-15.5-8.33,0-12.73,7.72-13.05,18-2.11,4.5-4.63,7.84-7.61,7.84-2.82,0-5-2.68-5.17-8.58,8.05-6,12.28-13.49,12.28-21.2,0-7.32-2.35-11.34-8-11.34-9,0-13.88,9.66-13.88,24.22,0,2.54,0,4.86.13,7-1.75,4.54-3.6,8.16-5.37,8.16s-2.68-1.81-2.68-6c0-7.38.27-12.08.27-14S160.74,19,158.19,19c-1.88,0-2.82,1-3.22,3.83-1.14,8.92-4.7,18.11-7,18.11-.73,0-1.14-.47-1.14-1.68-.13-5.23,1-14.35.07-17.44-.74-2.42-4.23-3.22-6.37-3.22-1.75,0-2.42.67-2.75,1.95a45.25,45.25,0,0,0-1.09,9,9.65,9.65,0,0,1-4.89,2.63c.07-.74.07-1.47.07-2.21,0-8.86-3.22-11.68-7-11.68-3,0-6,1.68-8.39,6.44.4-7.44.94-12.81.94-18.58C117.4,4.47,113.64,3,111,3c-1.55,0-2.75.53-2.95,1.74-1,6.31-1.48,17.78-1.48,27.44,0,.84,0,1.65,0,2.43-1.76,4.35-3.63,7.77-5.34,7.77-1.07,0-1.75-.47-1.75-2.08,0-2.62,1.28-14.69,1.28-17.38,0-2.08-2.22-3.75-5-3.75-1.4,0-2,.94-2.55,3.42-.93-2.42-2.54-4.3-5.7-4.3-3.74,0-7.1,2-9.63,5.43l-.12.17A25.5,25.5,0,0,0,73.48,36c-1.54,3.67-3.13,6.38-4.66,6.38s-2.61-1.61-2.61-5.5c0-5.84,1-9.19,1-12.68,0-3.76-1.88-5.84-5.37-5.84-4.16,0-7.78,2.35-10.46,8.45C51.58,18,51.65,9.3,51.11,6c-.27-1.75-3.69-3-6.24-3-1.54,0-2.42.4-2.68,1.94C40,17.82,40.78,47.14,41.25,50.1c.33,2.41,3.15,3.08,6.1,3.08a3,3,0,0,0,2.89-2.61c1.47-7.38,4.43-20,6.3-20,.41,0,.61.34.54.87a83.49,83.49,0,0,0-.54,8.46c0,8.79,2.55,13.28,8.86,13.28,3.72,0,6.93-2.54,9.49-6.16,1.93,3.77,5.29,6,8.63,6s6-2.89,8-6.71c1.54,3.89,5.43,6.84,8.92,6.84,3.22,0,6-2.63,8.18-6.35,1.86,4.55,4.88,6.35,8.8,6.35,7.92,0,12.08-6.3,13.69-14.56a18.66,18.66,0,0,0,5.51-1.27c.14,9.09,1.57,15.83,7.7,15.83,4.5,0,7.92-3.22,10.4-11.74.61,7.31,2.82,11.74,8.59,11.74,4.3,0,7.92-3.39,10.64-7.93,2,5.51,5.46,7.93,11,7.93,4.49,0,8.22-2.88,11.08-6.88,1.84,4.08,5.2,6.82,10.25,6.82,7.72,0,11.2-6.11,12.48-12.22a13.22,13.22,0,0,0,5.65-1.53c0,.2,0,.4,0,.6-.4,7-.89,12.17-.89,17.7,0,1.68,1.76,3.15,4.44,3.15,1.55,0,2.75-.53,2.95-1.74.27-1.66.5-3.68.69-5.93.14,0,.27,0,.42,0,4.5,0,7.92-3.22,10.4-11.74.61,7.31,2.82,11.74,8.59,11.74,3.7,0,6.91-2.51,9.46-6.11a15,15,0,0,0,11.88,6.45c6.91,0,9.66-5,9.66-8.66C282,37.35,276.08,23.8,271.38,19.3Zm-86.69-8.92c.88,0,1.48.73,1.48,3.75,0,3.56-1.74,8.26-4.56,13.49C181.88,12.86,183,10.38,184.69,10.38ZM83.58,42.18c-1.14,0-1.61-1.34-1.61-3.09,0-5.57,4.16-12,6.91-12,.81,0,1.28.61,1.28,2C90.16,33,86.94,42.18,83.58,42.18Zm35.56,1.94c-2.35,0-3.08-3.08-2.88-12.94,1.21-1.95,2.55-3.29,3.82-3.29h.14a12.34,12.34,0,0,0-.14,1.61,9.65,9.65,0,0,0,2.75,6.84C122.43,40.9,121,44.12,119.14,44.12Zm88.77,0c-2.62,0-4-2.88-4-9.12,0-4.9,1.55-8.59,4.23-8.59a2.65,2.65,0,0,1,1.81.67,11.47,11.47,0,0,0-1.48,5.71,7.47,7.47,0,0,0,3,6.37C211,41.91,210.06,44.12,207.91,44.12Zm62.8-.4c-2.28,0-4.6-2.09-6.36-4.1a43.86,43.86,0,0,0,2.35-8.34c2.57,3.33,5.55,7.36,5.55,10.76A1.48,1.48,0,0,1,270.71,43.72Z"/></g><path class="cls-3" d="M33.08,21.2h0v0Z"/><path class="cls-3" d="M18.06,32.1a4.9,4.9,0,0,1-.54,0l-.39,0"/><path class="cls-3" d="M32,29.3c-1.74,5.71-5.24,8.8-8.46,10h0C26.74,38.1,30.24,35,32,29.3Z"/><path class="cls-3" d="M37.84,38.7c-.07-3.19-.12-7-.1-11.09,0-1.64,0-3.32,0-5"/><path class="cls-3" d="M20.51,30.62l0,0Z"/><path class="cls-3" d="M23.61,20.39A36.27,36.27,0,0,0,25.44,9c0-.88,0-1.74-.11-2.6.06.86.11,1.72.11,2.6a36.27,36.27,0,0,1-1.83,11.38c-.16.48-.33.95-.5,1.42C23.28,21.34,23.45,20.87,23.61,20.39Z"/><path class="cls-3" d="M20.55,30.57c1.1-1.42,1.8-3.8,1.91-7.15.22-.5.42-1,.61-1.5-.19.51-.4,1-.61,1.5C22.35,26.77,21.65,29.15,20.55,30.57Z"/><path class="cls-3" d="M55.15,46c0-.11-.11-.22-.15-.33a.91.91,0,0,1-.07-.14c-.07-.15-.14-.31-.2-.47l0-.1"/><path class="cls-3" d="M47.24,47.57a3.5,3.5,0,0,1-.53,1.29,3.5,3.5,0,0,0,.53-1.29l.12-.59h0Z"/><path class="cls-3" d="M38.68,48.28a2.3,2.3,0,0,0,.32.38A2.3,2.3,0,0,1,38.68,48.28Z"/><line class="cls-3" x1="33.08" y1="21.2" x2="33.08" y2="21.19"/><path class="cls-2" d="M41.29,49.85a.61.61,0,0,0,.18,0l-.54-.14Z"/><path class="cls-2" d="M41.72,50,42,50h0Z"/><path class="cls-2" d="M42.36,50.06c.38,0,.78.08,1.18.1q-.4,0-.81-.06Z"/><path class="cls-4" d="M228.44,51.48c0,.12,0,.23,0,.35-.15,1.58-.33,3-.52,4.25s-1.41,1.74-3,1.74c-2.68,0-4.44-1.47-4.44-3.15,0-.19,0-.38,0-.57l5-1.66h.05Z"/><path class="cls-4" d="M33.08,21.19a34.94,34.94,0,0,0-7.64-.85c-.61,0-1.22,0-1.83.05A36.27,36.27,0,0,0,25.44,9c0-.88-.05-1.74-.11-2.6,0-.22,0-.43,0-.64C30.44,8,33.06,12.85,33.08,21.19Z"/><polygon points="25.29 5.77 25.29 5.77 25.29 5.77 25.29 5.77 25.29 5.77"/><path class="cls-5" d="M25.33,6.41c0-.22,0-.43,0-.64a19.37,19.37,0,0,0-7-1.38c-.35,0-.7,0-1.07,0C13.56,4.36,0,5,0,8.92c0,1.28,1.48,6,3.16,6.91-.11,4-.14,8.41-.12,12.7a34.76,34.76,0,0,1,11.51-6.44c0-2.79,0-5.41-.12-7.6l.46-.07a18.38,18.38,0,0,1,2.76-.27c2.71,0,4.39,1.87,4.75,6.33l1.21-.09A36.27,36.27,0,0,0,25.44,9C25.44,8.13,25.39,7.27,25.33,6.41Z"/><path d="M25.29,5.77h0c0,.21,0,.42,0,.64C25.32,6.19,25.31,6,25.29,5.77Z"/><polygon points="18.06 32.1 18.06 32.1 18.06 32.1 18.06 32.1 18.06 32.1"/><path d="M20.55,30.57l0,.05Z"/><path d="M32,29.3a27.72,27.72,0,0,0,1.1-8v0A27.72,27.72,0,0,1,32,29.3Z"/><path d="M18.06,32.1a29.12,29.12,0,0,0,5.46,7.15h0a29.12,29.12,0,0,1-5.46-7.15Z"/><path class="cls-2" d="M25.44,20.34c-.61,0-1.22,0-1.83.05l-1.21.09c.05.62.08,1.28.08,2,0,.33,0,.64,0,1-.11,3.35-.81,5.73-1.91,7.15l0,.05,0,0a4.06,4.06,0,0,1-.53.56.9.9,0,0,1-.19.15.07.07,0,0,1-.05,0l-.09.07a.91.91,0,0,1-.16.11l-.2.12-.21.11a3,3,0,0,1-.66.23l-.34.07a4.9,4.9,0,0,1-.54,0l-.39,0a16.11,16.11,0,0,1-2.77-.39c.11-3.18.18-6.51.19-9.64A34.76,34.76,0,0,0,3,28.53c0,5.25.14,10.27.3,13.89.1,2.51.22,4.35.35,5.15C4,49.38,6.91,49.85,10.27,50c2.75.14,3.22-1.21,3.42-3.42.13-1.14.34-4.43.47-8.52,1.34,1.07,3.36,1.74,6.58,1.74a8.89,8.89,0,0,0,2.78-.53C26.74,38.1,30.24,35,32,29.3a27.72,27.72,0,0,0,1.1-8v-.08A34.94,34.94,0,0,0,25.44,20.34Z"/><path d="M23.11,21.81a.36.36,0,0,0,0,.11A.36.36,0,0,1,23.11,21.81Z"/><path class="cls-6" d="M249,19.39c0,.71,0,1.78-.08,3.22a30,30,0,0,0-9.69.07c.17-.94.32-1.88.44-2.82C240.07,17,241,16,242.88,16,245.43,16,249,17.44,249,19.39Z"/><path class="cls-6" d="M232,24.85a30.62,30.62,0,0,0-14.16,12.78,15.12,15.12,0,0,1-2.08.28c0,.06,0,.12,0,.18a28.87,28.87,0,0,0-18.15-20.52,10.9,10.9,0,0,1,6.85-2.28c6.91,0,11.47,4.84,11.88,15.5,1.94-.38,3.58-1.6,5.14-4a46.42,46.42,0,0,1,1.1-9.17c.33-1.28,1-1.95,2.75-1.95,2.14,0,5.63.81,6.37,3.22A22.13,22.13,0,0,1,232,24.85Z"/><path class="cls-4" d="M105.52,44c-2.19,3.64-4.92,6.2-8.1,6.2-3.48,0-7.38-3-8.92-6.84a20.48,20.48,0,0,1-1.44,2.43,28.43,28.43,0,0,0-5.55-6.84,3.94,3.94,0,0,0,1-.73l1-.37a34.65,34.65,0,0,0,17.54,4.75,35.4,35.4,0,0,0,4.14-.25C105.29,42.88,105.4,43.43,105.52,44Z"/><path class="cls-5" d="M79.06,34.72l-.29-.24a35,35,0,0,1-6.9-7.81,30.28,30.28,0,0,0-1.36,6.1,28.12,28.12,0,0,1,7.22,3.29q.66.42,1.29.87a7.44,7.44,0,0,1,0-.84A12.77,12.77,0,0,1,79.06,34.72Z"/><path class="cls-4" d="M83.53,37.83l-1,.37a4.88,4.88,0,0,0,.57-.62Z"/><path class="cls-4" d="M58.84,15.36c-4.16,0-7.78,2.35-10.46,8.46.2-8.86.27-17.52-.27-20.8-.27-1.75-3.69-3-6.24-3-1.54,0-2.42.4-2.68,1.94a144,144,0,0,0-1.34,18.17l-.06,2.5c.65.25,1.29.51,1.92.8a34.68,34.68,0,0,1,11.47,8.34c.85-2.49,1.68-4.18,2.36-4.18.41,0,.61.34.54.87-.17,1.6-.3,3.11-.4,4.53a28.46,28.46,0,0,1,8.75-1.37l.83,0c.2-4.49.95-7.41.95-10.42C64.21,17.44,62.33,15.36,58.84,15.36Z"/><path class="cls-5" d="M197.52,17.57a15.9,15.9,0,0,0-5.24,8.73,30.28,30.28,0,0,0-.66,3.31c.44.27.87.55,1.3.83A34.87,34.87,0,0,1,206.77,49c.06.18.1.36.15.54.18,0,.34-.11.51-.17,4.78-1.76,7.2-6.51,8.24-11.31A28.87,28.87,0,0,0,197.52,17.57Zm7.39,23.56c-2.62,0-4-2.89-4-9.13,0-4.9,1.55-8.59,4.23-8.59a2.65,2.65,0,0,1,1.81.67,11.46,11.46,0,0,0-1.47,5.71,7.47,7.47,0,0,0,3,6.37C208,38.91,207.06,41.13,204.91,41.13Z"/><path class="cls-5" d="M276.94,31.88A34.64,34.64,0,0,0,265.55,30L265,30c-.43-.58-.86-1.15-1.29-1.7,0,.27-.11.56-.17.84a29.49,29.49,0,0,0-4.85-3.24l1.51-4.53c.71-3.45,4.23-6.12,5.77-6.12a3.41,3.41,0,0,1,2.42,1.07C271.35,19.14,274.8,25.61,276.94,31.88Z"/><path class="cls-5" d="M151.67,21.88C150.3,30.11,147.1,38,145,38c-.73,0-1.14-.47-1.14-1.68-.13-5.23,1-14.35.07-17.44-.74-2.41-4.23-3.22-6.37-3.22-1.75,0-2.42.67-2.75,1.95a45.25,45.25,0,0,0-1.09,9,9.65,9.65,0,0,1-4.89,2.63c0-.16,0-.32,0-.48A35.63,35.63,0,0,1,119,37.58c-.69,2.19-1.72,3.55-2.9,3.55A2,2,0,0,1,114.32,40a34.81,34.81,0,0,1-9.11,2.37c.08.55.19,1.1.31,1.65a1.09,1.09,0,0,0,.08-.15c1.86,4.55,4.88,6.35,8.8,6.35,7.35,0,11.46-5.44,13.3-12.82q.21-.86.39-1.74a18.66,18.66,0,0,0,5.51-1.27c.13,8.45,1.38,14.85,6.47,15.72a34.8,34.8,0,0,1,19.62-22.62A28.55,28.55,0,0,1,151.67,21.88Z"/><path class="cls-2" d="M121.85,15.29c-3,0-6,1.68-8.39,6.45.09-1.67.19-3.22.28-4.7.34-5.16.66-9.41.66-13.89C114.4,1.47,110.64,0,108,0a4.94,4.94,0,0,0-1.5.21A2,2,0,0,0,105,1.74a148.76,148.76,0,0,0-1.29,16.59c0,1.31-.08,2.63-.11,4,0,2.33-.08,4.66-.08,6.89,0,.84,0,1.65,0,2.43-1.76,4.35-3.63,7.77-5.34,7.77-1.07,0-1.75-.47-1.75-2.08,0-1.32.33-5.06.65-8.79.19-2.11.37-4.21.49-5.87.08-1.19.14-2.16.14-2.72,0-2.08-2.21-3.75-5-3.75-1.4,0-2,.94-2.55,3.42-.93-2.42-2.54-4.3-5.7-4.3-3.74,0-7.1,2-9.63,5.43l-.12.17a22.22,22.22,0,0,0-2.92,5.78,35,35,0,0,0,6.9,7.81l.29.24c0-.26.06-.53.11-.8.85-4.94,4.32-9.84,6.71-9.84.81,0,1.28.61,1.28,2a5.55,5.55,0,0,1,0,.56c-.19,3.06-1.88,8.35-4,11l.43.25a34.65,34.65,0,0,0,17.54,4.75,35.4,35.4,0,0,0,4.14-.25A34.81,34.81,0,0,0,114.32,40c-.91-1.64-1.2-5.19-1.06-11.78a9.59,9.59,0,0,1,2.3-2.71,2.63,2.63,0,0,1,1.52-.58h.14c-.06.47-.11.95-.13,1.43,0,.06,0,.12,0,.18a9.63,9.63,0,0,0,2.75,6.84,20.56,20.56,0,0,1-.79,4.24,35.63,35.63,0,0,0,9.81-8.88c0-.58,0-1.15,0-1.73C128.89,18.11,125.67,15.29,121.85,15.29Z"/><polygon points="59.8 49.86 59.8 49.86 59.8 49.86 59.8 49.86 59.8 49.86"/><path class="cls-6" d="M81.51,38.93a2.12,2.12,0,0,1-.93.25A1.15,1.15,0,0,1,80,39a2.6,2.6,0,0,1-1-2.07q-.63-.45-1.29-.87a28.12,28.12,0,0,0-7.22-3.29l0,.23c-1.54,3.67-3.13,6.38-4.66,6.38a2,2,0,0,1-1.68-.89c-.6-.85-.93-2.33-.93-4.61,0-.8,0-1.55,0-2.26l-.83,0A28.46,28.46,0,0,0,53.68,33c0,.6-.06,1.19-.09,1.76.52.71,1,1.43,1.46,2.18h0a34.19,34.19,0,0,1,3,6.33h0a34.74,34.74,0,0,1,1.69,6.62,10.06,10.06,0,0,0,2.6.32c3.72,0,6.93-2.54,9.49-6.16a12.59,12.59,0,0,0,1.93,2.78,9.24,9.24,0,0,0,6.7,3.25c2.59,0,4.78-1.73,6.54-4.28A28.43,28.43,0,0,0,81.51,38.93Z"/><path d="M37.74,27.61c0,7.55.15,14.37.35,17.65h0C37.89,42,37.71,35.16,37.74,27.61Z"/><path d="M42.56,50.08l1,.08q-.4,0-.81-.06l-.37,0L42,50,41.72,50l-.25-.05-.54-.14.36.09c.23.06.46.11.7.15Z"/><path d="M46.21,49.43l-.07.07a1.66,1.66,0,0,1-.21.16A2,2,0,0,0,46.21,49.43Z"/><path d="M38.21,46.77h0a2.48,2.48,0,0,0,0,.33,2.83,2.83,0,0,0,.43,1.18,2.83,2.83,0,0,1-.43-1.18A2.48,2.48,0,0,1,38.21,46.77Z"/><path class="cls-2" d="M51.18,31.75a34.68,34.68,0,0,0-11.47-8.34c-.63-.29-1.27-.55-1.92-.8,0,1.68,0,3.36,0,5,0,4.05,0,7.9.1,11.09l.25,6.56c0,.64.08,1.16.12,1.51a2.48,2.48,0,0,0,0,.33,2.83,2.83,0,0,0,.43,1.18,2.3,2.3,0,0,0,.32.38,2.43,2.43,0,0,0,.34.3l.09.08,0,0a3.73,3.73,0,0,0,.39.25c.16.09.34.17.52.25s.36.14.56.2l.36.09c.23.06.46.11.7.15s.49.08.74.1.54,0,.81.06l.81,0a2,2,0,0,0,.35,0l.15,0,.26-.07.1,0a2.07,2.07,0,0,0,.34-.15,2.88,2.88,0,0,0,.38-.22,2,2,0,0,0,.28-.23,2.13,2.13,0,0,0,.26-.26,2.34,2.34,0,0,0,.24-.31,3.5,3.5,0,0,0,.53-1.29l.12-.59c.76-3.78,1.88-8.73,3-12.68l0,0,0,0C50.66,33.36,50.92,32.52,51.18,31.75Z"/><polygon points="38.21 46.77 38.21 46.77 38.21 46.77 38.21 46.77 38.21 46.77"/><path d="M50.4,34.26a.06.06,0,0,0,0,0l0,0Z"/><path class="cls-2" d="M206.77,49a34.87,34.87,0,0,0-13.85-18.59h0c-.43-.28-.86-.56-1.3-.83a35.85,35.85,0,0,0-.3,3.67c-2.11,4.5-4.63,7.85-7.61,7.85-2.82,0-5-2.69-5.17-8.59a38.36,38.36,0,0,0,5.93-5.48,28.46,28.46,0,0,1-12.79,3c-.89,0-1.78-.05-2.66-.13q0,.64.06,1.26c-1.75,4.54-3.6,8.16-5.37,8.16A1.9,1.9,0,0,1,162.5,39c-1-.73-1.47-2.51-1.47-5.56h0c0-1.68,0-3.21,0-4.61,0-.25,0-.5,0-.75l-.31-.12-1.08-.47a34.8,34.8,0,0,0-19.62,22.62,7,7,0,0,0,1.23.11c4.5,0,7.92-3.22,10.4-11.74.57,6.87,2.56,11.2,7.58,11.69.16,0,.32,0,.49,0l.52,0c4.3,0,7.92-3.39,10.64-7.93,2,5.51,5.46,7.93,11,7.93,4.49,0,8.22-2.88,11.08-6.88,1.84,4.08,5.2,6.82,10.25,6.82a12.12,12.12,0,0,0,3.69-.55c0-.18-.09-.36-.15-.54"/><path class="cls-4" d="M182.83,0c-8.65,0-13.5,9-13.85,22.63,0,.52,0,1.05,0,1.59,0,.22,0,.43,0,.65,0,1.81,0,3.5.08,5.09.88.08,1.77.13,2.66.13a28.46,28.46,0,0,0,12.79-3c.16-.19.34-.38.5-.58a25.05,25.05,0,0,0,5.33-10.54,21,21,0,0,0,.52-4.6C190.82,4,188.47,0,182.83,0Zm-1.14,7.38c.88,0,1.48.74,1.48,3.76a17.93,17.93,0,0,1-.93,5.17,47.15,47.15,0,0,1-3.63,8.31c0-3,.14-5.41.26-7.47C179.36,9,180.35,7.38,181.69,7.38Z"/><path class="cls-4" d="M160.77,27.92l-1.07-.47h0a28.55,28.55,0,0,1-8-5.57c.11-.68.22-1.35.3-2a5.08,5.08,0,0,1,1.29-3.18,2.75,2.75,0,0,1,1.93-.65c2.55,0,6.11,1.41,6.11,3.36,0,1.29-.12,3.79-.2,7.48,0,.38,0,.77,0,1.17Z"/><path class="cls-4" d="M261.07,30.26a34.86,34.86,0,0,0-4.24.8c.45-1.17.89-2.4,1.32-3.64A35.59,35.59,0,0,0,261.07,30.26Z"/><path class="cls-4" d="M248.72,31.93c0-4,.12-7.09.19-9.32a30,30,0,0,0-9.69.07C237.78,30.61,234.73,38,232.68,38c-.73,0-1.14-.47-1.14-1.68-.08-3.13.3-7.65.41-11.44a30.62,30.62,0,0,0-14.16,12.78,12.81,12.81,0,0,0,3.57-1.26c0,.2,0,.4,0,.6-.35,6.18-.77,11-.87,15.81,0,.44,0,.88,0,1.32,0,.19,0,.38,0,.57,0,1.68,1.76,3.15,4.44,3.15,1.55,0,2.75-.53,3-1.74s.37-2.67.52-4.25c0-.12,0-.23,0-.35.05-.43.09-.87.13-1.33l.42,0c4.5,0,7.92-3.22,10.4-11.74.09,1.06.22,2,.38,3a35,35,0,0,1,7.92-6.51l1.06-.61c0-.29,0-.56,0-.88Z"/><path class="cls-4" d="M263.53,29.12c-.06.31-.11.61-.18.92-.77.05-1.53.12-2.28.22a35.59,35.59,0,0,1-2.92-2.84c.18-.51.36-1,.53-1.54A29.49,29.49,0,0,1,263.53,29.12Z"/><path class="cls-2" d="M278.69,38.67a42,42,0,0,0-1.75-6.79A34.64,34.64,0,0,0,265.55,30L265,30c.33.45.66.9,1,1.37a25.92,25.92,0,0,1,2.26,3.79,9.6,9.6,0,0,1,1,3.91,1.48,1.48,0,0,1-1.54,1.67c-2.28,0-4.6-2.09-6.36-4.1a46.14,46.14,0,0,0,1.57-4.84c.16-.59.3-1.17.43-1.74-.77.05-1.53.12-2.28.22a34.86,34.86,0,0,0-4.24.8c-1.76,4.61-3.64,8.32-5.43,8.32-1.61,0-2.52-1.57-2.65-5.09l-1.06.61a35,35,0,0,0-7.92,6.51,18.53,18.53,0,0,0,.95,3.59c1.28,3.31,3.52,5.18,7.26,5.18s6.91-2.51,9.46-6.11c2.45,3.31,6.54,6.45,11.88,6.45a10.65,10.65,0,0,0,5.22-1.24A8.64,8.64,0,0,0,279,41.86,19.77,19.77,0,0,0,278.69,38.67Z"/><path class="cls-2" d="M58.11,43.24a33.61,33.61,0,0,0-3.06-6.33c-.46-.75-.94-1.47-1.46-2.18,0,.49,0,1,0,1.44,0,.24,0,.49,0,.73A23.22,23.22,0,0,0,54.69,45l0,.1c.06.16.13.32.2.47a.91.91,0,0,0,.07.14c0,.1.09.2.14.3s0,0,0,0c.1.21.21.41.33.61s.25.39.38.57l.07.09a7.11,7.11,0,0,0,.49.6l.31.31a6.91,6.91,0,0,0,3.07,1.67A34.74,34.74,0,0,0,58.11,43.24Z"/></svg>